<?xml version="1.0" encoding="utf-8"?>
<!-- Generator: Adobe Illustrator 22.1.0, SVG Export Plug-In . SVG Version: 6.00 Build 0)  -->
<svg version="1.1" id="Layer_1" xmlns="http://www.w3.org/2000/svg" xmlns:xlink="http://www.w3.org/1999/xlink" x="0px" y="0px"
	 viewBox="0 0 200 200" style="enable-background:new 0 0 200 200;" xml:space="preserve">
<style type="text/css">
	.st0{fill:#01B7F2;}
</style>
<g>
	<g>
		<path class="st0" d="M16.8,144.8c5.7-1.7,9-5.5,9.8-11.4c0.2-1.1,0.2-2.2,0.2-3.3c0-17.7,0-35.4,0-53.1c0-0.4,0-0.9,0-1.4
			c4.9,0,9.8,0,14.8,0c0,0.4,0,0.8,0,1.1c0,17.9,0,35.8,0,53.7c0,9.4-3.9,16.7-12.2,21.5c-1.2,0.7-2.5,1.1-3.8,1.7
			c-0.5,0.2-0.9,0.1-1.3-0.3c-2.3-2.3-4.6-4.6-6.9-6.9c-0.2-0.2-0.5-0.4-0.8-0.6C16.8,145.5,16.8,145.1,16.8,144.8z"/>
		<path class="st0" d="M89.1,46.1c4.9,0,9.6,0,14.3,0c0,27,0,54,0,81.1c-4.3,0-8.6,0-13.1,0c0-1.9,0-3.9,0-5.8
			c-1.5,1.9-3.1,3.6-5.2,4.7c-5.3,2.8-10.9,3.3-16.6,1.8c-10.3-2.8-16.4-9.7-18.4-20.1c-1.5-7.8-0.6-15.4,3.8-22.1
			c5.7-8.6,13.9-12.1,24.1-11.5c3.9,0.3,7.6,1.3,11.1,3.5C89.1,67.1,89.1,56.7,89.1,46.1z M89.1,101.3c0-2.8,0-5.6,0-8.4
			c0-0.8-0.2-1.4-0.8-1.9c-4.8-4.8-13.7-5.2-18.9-0.9c-4.7,3.9-6.5,11-4.2,17.3c1.8,5,5.4,8.1,10.7,8.9c5,0.7,9.4-0.8,12.6-4.8
			c0.3-0.4,0.5-1.1,0.6-1.6C89.2,107,89.1,104.1,89.1,101.3z"/>
		<path class="st0" d="M160.1,120.8c-0.6,0.5-1,0.9-1.5,1.2c-2.6,2.2-5.2,4.4-7.7,6.6c-0.6,0.5-1.1,0.6-1.8,0.3
			c-3.3-1.2-5.7-3.4-7-6.6c-0.1,0-0.2,0-0.2,0.1c-2.7,4.7-7.1,6.2-12.1,6.4c-6.3,0.3-11.6-1.7-15.4-6.9c-4.9-6.8-5-20,8-25.1
			c3-1.2,6.2-1.5,9.5-1.8c2.6-0.2,5.1-0.5,7.7-0.7c0.8-4.9-1.3-7.7-6.3-8.3c-5.5-0.6-10.7,0.7-15.6,3.3c-0.3,0.2-0.6,0.3-1,0.5
			c-0.6-2.5-1.2-4.9-1.7-7.3c-0.2-1-0.4-2-0.7-2.9c-0.3-0.9,0-1.3,0.8-1.7c3.2-1.7,6.6-2.8,10.2-3.4c5.7-0.9,11.4-0.8,16.9,1.1
			c7.4,2.5,11.9,8.7,11.9,16.6c0,6.5,0,13.1,0.1,19.6c0.1,3.4,1.2,6.4,4.4,8.2c0.3,0.1,0.5,0.3,0.8,0.4
			C159.5,120.5,159.7,120.6,160.1,120.8z M139.7,104.3c-2.9,0.3-5.7,0.5-8.5,0.8c-1.7,0.2-3.3,1-4.4,2.3c-1.7,2-2.3,4.3-1.3,6.7
			c0.9,2.3,2.9,3.4,5.3,3.5c3.7,0.2,7.3-2.3,8.4-5.8C140.1,109.5,139.7,106.9,139.7,104.3z"/>
		<path class="st0" d="M33.6,68.6c-3-3-6.1-6.1-9.1-9.1c3.1-3.1,6.1-6.3,9.2-9.4c3.1,3.1,6.2,6.2,9.2,9.3
			C39.9,62.4,36.7,65.5,33.6,68.6z"/>
		<path class="st0" d="M175.8,130c-0.1-0.1-0.3-0.3-0.5-0.4c-2.9-3-5.8-5.9-8.7-8.8c3.1-3.1,6.2-6.2,9.2-9.2c3,3,6.1,6.1,9.1,9.2
			C182,123.7,178.9,126.8,175.8,130z"/>
	</g>
</g>
</svg>
